<svg xmlns="http://www.w3.org/2000/svg" version="1.1" xmlns:xlink="http://www.w3.org/1999/xlink" xmlns:svgjs="http://svgjs.dev/svgjs" width="2000" height="1500" viewBox="0 0 2000 1500"><rect width="2000" height="1500" fill="#ffffff"></rect><g transform="matrix(0.75,0,0,0.75,249.090909090909,502.5365590766876)"><svg viewBox="0 0 396 131" data-background-color="#ffffff" preserveAspectRatio="xMidYMid meet" height="661" width="2000" xmlns="http://www.w3.org/2000/svg" xmlns:xlink="http://www.w3.org/1999/xlink"><g id="tight-bounds" transform="matrix(1,0,0,1,0.2400000000000091,-0.1087528775513249)"><svg viewBox="0 0 395.52 131.21750575510265" height="131.21750575510265" width="395.52"><g><svg viewBox="0 0 666.685792780698 221.17932557404532" height="131.21750575510265" width="395.52"><g transform="matrix(1,0,0,1,271.1657927806981,39.847595577388546)"><svg viewBox="0 0 395.5199999999999 141.48413441926823" height="141.48413441926823" width="395.5199999999999"><g id="textblocktransform"><svg viewBox="0 0 395.5199999999999 141.48413441926823" height="141.48413441926823" width="395.5199999999999" id="textblock"><g><svg viewBox="0 0 395.5199999999999 105.86943866943867" height="105.86943866943867" width="395.5199999999999"><g transform="matrix(1,0,0,1,0,0)"><svg width="395.5199999999999" viewBox="2.3 -38.3 192.38 51.5" height="105.86943866943867" data-palette-color="#7a26c1"><g class="wordmark-text-0" data-fill-palette-color="primary" id="text-0"><path d="M13.75 0.55Q8.6 0.55 5.45-2.95 2.3-6.45 2.3-12.2 2.3-17.95 5.63-21.45 8.95-24.95 14-24.95 19.05-24.95 21.55-22.68 24.05-20.4 24.05-16.35L24.05-16.35Q24.05-15.15 23.85-13.95L23.85-13.95 7.7-13.95 7.7-12.2Q7.7-6.6 9.3-3.73 10.9-0.85 14.55-0.85L14.55-0.85Q19.7-0.85 22.5-5.35L22.5-5.35Q23.6-5 23.6-4.3L23.6-4.3Q23.6-3.05 21.3-1.4L21.3-1.4Q20.2-0.6 18.2-0.03 16.2 0.55 13.75 0.55L13.75 0.55ZM19.3-17.4L19.3-17.4Q19.3-19.7 18.35-21.35L18.35-21.35Q17.05-23.55 14.15-23.55L14.15-23.55Q8.75-23.55 7.85-15.75L7.85-15.75 19.2-15.75Q19.3-16.6 19.3-17.4ZM33.2-5.4L33.2-5.4Q33.2-2.15 35.85-1.55L35.85-1.55Q36.45-1.4 37-1.4L37-1.4Q38.9-1.4 40.95-3.03 43-4.65 43.1-7.4L43.1-7.4 43.1-11.7Q33.2-11.6 33.2-5.4ZM35.2 0.6L35.2 0.6Q32.35 0.6 30.32-0.98 28.3-2.55 28.3-5.4L28.3-5.4Q28.35-9.25 32.17-11.15 36-13.05 43.1-13.05L43.1-13.05 43.1-17.35Q43.1-23.7 38.5-23.7L38.5-23.7Q36.15-23.7 34.7-21.75L34.7-21.75Q33.7-20.4 33.7-18.4L33.7-18.4Q33.7-17.55 33.9-16.6L33.9-16.6Q33.2-16.1 32.47-16.1 31.75-16.1 31.05-16.4L31.05-16.4Q29.45-17 29.45-18.7L29.45-18.7Q29.45-21 31.1-22.5L31.1-22.5Q33.8-24.95 38.55-24.95 43.3-24.95 45.45-22.93 47.6-20.9 47.6-16.55L47.6-16.55 47.6-1.4 51.8-1.2 51.85-0.05 43.5 0.55 43.05-3.9Q40.75 0.6 35.2 0.6ZM63.25-0.7L63.25-0.7Q65.25-0.7 66.72-1.8 68.2-2.9 68.2-5.5L68.2-5.5Q68.2-7.25 66.62-8.4 65.05-9.55 62.7-10.48 60.35-11.4 59.52-11.78 58.7-12.15 57.35-13L57.35-13Q54.9-14.65 54.9-17.75 54.9-20.85 57.35-22.9 59.8-24.95 64.5-24.95L64.5-24.95Q67.5-24.95 69.62-23.63 71.75-22.3 71.75-20.45 71.75-18.6 70.35-17.9L70.35-17.9Q69.6-17.55 68.87-17.55 68.15-17.55 67.45-17.85L67.45-17.85Q67.65-18.75 67.65-19.8 67.65-20.85 67.15-21.9L67.15-21.9Q66.3-23.7 63.9-23.7 61.5-23.7 60.25-22.4 59-21.1 59-19L59-19Q59-16.85 60.8-15.8L60.8-15.8Q62.15-14.95 64.15-14.25 66.15-13.55 66.87-13.28 67.6-13 68.8-12.35 70-11.7 70.6-11L70.6-11Q72.15-9.3 72.15-6.4 72.15-3.5 69.55-1.48 66.95 0.55 63.2 0.55 59.45 0.55 56.62-0.6 53.8-1.75 53.8-3.95L53.8-3.95Q53.8-6 56.85-6.65L56.85-6.65Q57.75-0.7 63.25-0.7ZM83.47 10.2Q82.44 11.35 80.89 12.28 79.34 13.2 77.77 13.2 76.19 13.2 75.32 12.38 74.44 11.55 74.44 10.18 74.44 8.8 75.69 7.4L75.69 7.4Q77.09 9 78.84 9L78.84 9Q81.34 9 83.14 6.83 84.94 4.65 86.64 0L86.64 0 77.04-22.8 74.49-23.1 74.49-24.4 85.14-24.4 85.14-23.1 81.69-22.8 88.84-5.35 94.99-22.15 90.99-23.1 90.99-24.4 100.59-24.4 100.59-23.1 97.09-22.15 88.64 0Q87.74 2.3 87.24 3.55 86.74 4.8 85.62 6.93 84.49 9.05 83.47 10.2ZM118.04-5.2L118.04-5.2Q118.04-5.05 117.99-4.85L117.99-4.85Q117.19-2.4 115.32-0.93 113.44 0.55 110.94 0.55 108.44 0.55 106.77-0.88 105.09-2.3 105.09-6.45L105.09-6.45Q105.09-7.6 105.34-23.1L105.34-23.1 101.89-23.1 101.89-24.4 105.39-24.4 105.44-31.75 110.34-31.75 110.19-24.4 117.34-24.4 117.34-23.1 110.19-23.1Q109.94-6.95 109.94-4.2L109.94-4.2Q109.94-0.85 112.14-0.85L112.14-0.85Q113.49-0.85 114.97-2.4 116.44-3.95 117.04-5.9L117.04-5.9Q118.04-5.9 118.04-5.2ZM125.69-5.4L125.69-5.4Q125.69-2.15 128.34-1.55L128.34-1.55Q128.94-1.4 129.49-1.4L129.49-1.4Q131.39-1.4 133.44-3.03 135.49-4.65 135.59-7.4L135.59-7.4 135.59-11.7Q125.69-11.6 125.69-5.4ZM127.69 0.6L127.69 0.6Q124.84 0.6 122.81-0.98 120.79-2.55 120.79-5.4L120.79-5.4Q120.84-9.25 124.66-11.15 128.49-13.05 135.59-13.05L135.59-13.05 135.59-17.35Q135.59-23.7 130.99-23.7L130.99-23.7Q128.64-23.7 127.19-21.75L127.19-21.75Q126.19-20.4 126.19-18.4L126.19-18.4Q126.19-17.55 126.39-16.6L126.39-16.6Q125.69-16.1 124.96-16.1 124.24-16.1 123.54-16.4L123.54-16.4Q121.94-17 121.94-18.7L121.94-18.7Q121.94-21 123.59-22.5L123.59-22.5Q126.29-24.95 131.04-24.95 135.79-24.95 137.94-22.93 140.09-20.9 140.09-16.55L140.09-16.55 140.09-1.4 144.29-1.2 144.34-0.05 135.99 0.55 135.54-3.9Q133.24 0.6 127.69 0.6ZM155.74-0.7L155.74-0.7Q157.74-0.7 159.21-1.8 160.69-2.9 160.69-5.5L160.69-5.5Q160.69-7.25 159.11-8.4 157.54-9.55 155.19-10.48 152.84-11.4 152.01-11.78 151.19-12.15 149.84-13L149.84-13Q147.39-14.65 147.39-17.75 147.39-20.85 149.84-22.9 152.29-24.95 156.99-24.95L156.99-24.95Q159.99-24.95 162.11-23.63 164.24-22.3 164.24-20.45 164.24-18.6 162.84-17.9L162.84-17.9Q162.09-17.55 161.36-17.55 160.64-17.55 159.94-17.85L159.94-17.85Q160.14-18.75 160.14-19.8 160.14-20.85 159.64-21.9L159.64-21.9Q158.79-23.7 156.39-23.7 153.99-23.7 152.74-22.4 151.49-21.1 151.49-19L151.49-19Q151.49-16.85 153.29-15.8L153.29-15.8Q154.64-14.95 156.64-14.25 158.64-13.55 159.36-13.28 160.09-13 161.29-12.35 162.49-11.7 163.09-11L163.09-11Q164.64-9.3 164.64-6.4 164.64-3.5 162.04-1.48 159.44 0.55 155.69 0.55 151.94 0.55 149.11-0.6 146.29-1.75 146.29-3.95L146.29-3.95Q146.29-6 149.34-6.65L149.34-6.65Q150.24-0.7 155.74-0.7ZM183.68-23.25L183.68-24.4 193.48-24.4 193.48-23.25 189.78-22.3 180.23-14.1 191.33-1.55 194.68-1.2 194.68 0 182.83 0 182.83-1.2 185.63-1.45 176.33-12.4 176.33-1.45 179.43-1.2 179.43 0 168.18 0 168.18-1.2 171.43-1.45 171.43-35.9 167.03-36.1 166.98-37.25 176.33-38.3 176.33-13 186.93-22.3 183.68-23.25Z" fill="#7a26c1" data-fill-palette-color="primary"></path></g></svg></g></svg></g><g transform="matrix(1,0,0,1,0,130.86267227276505)"><svg viewBox="0 0 232.2097919999999 10.621462146503145" height="10.621462146503145" width="232.2097919999999"><g transform="matrix(1,0,0,1,0,0)"><svg width="232.2097919999999" viewBox="2.8 -35.85 1056.78 48.3" height="10.621462146503145" data-palette-color="#7a26c1"><path d="M2.8-33.95L2.8-33.95Q3.55-33.9 4.67-33.88 5.8-33.85 7.05-33.83 8.3-33.8 9.43-33.8 10.55-33.8 11.2-33.8L11.2-33.8 11.2-6.9Q11.2-5.05 11.55-4.05 11.9-3.05 12.9-2.65 13.9-2.25 15.75-2.25L15.75-2.25 15.75 0Q14.35 0 12.53 0 10.7 0 8.83 0.03 6.95 0.05 5.35 0.08 3.75 0.1 2.8 0.15L2.8 0.15Q2.8-0.55 2.85-1.07 2.9-1.6 3.05-2L3.05-2Q4.4-2.1 5.15-2.5 5.9-2.9 6.2-3.93 6.5-4.95 6.5-6.9L6.5-6.9 6.5-27.45Q6.5-29.15 6.2-30.05 5.9-30.95 5.15-31.35 4.4-31.75 3.05-31.8L3.05-31.8Q2.9-32.2 2.85-32.77 2.8-33.35 2.8-33.95ZM25.8-8.55L25.8-8.55Q26.55-8.35 27.05-8.08 27.55-7.8 28-7.35L28-7.35Q27.45-5.65 27.08-3.65 26.7-1.65 26.45 0.1L26.45 0.1Q25.5 0.05 23.88 0.05 22.25 0.05 20.18 0.03 18.1 0 15.75 0L15.75 0 15.75-2.25 16.05-2.25Q19.65-2.25 21.48-2.98 23.3-3.7 24.2-5.1 25.1-6.5 25.8-8.55ZM22.3-22.5L22.3-22.5Q22.25-21.25 22.23-19.8 22.2-18.35 22.2-17.05L22.2-17.05Q22.2-15.75 22.23-14.15 22.25-12.55 22.3-11.25L22.3-11.25Q21.65-11.25 21.1-11.3 20.55-11.35 20-11.5L20-11.5Q19.8-14.1 18.63-15.03 17.45-15.95 14.35-15.95L14.35-15.95 10.75-15.95 10.75-18.1 14.35-18.1Q17.45-18.1 18.65-18.9 19.85-19.7 19.9-22.15L19.9-22.15Q20.55-22.35 21.1-22.43 21.65-22.5 22.3-22.5ZM25.25-33.95L25.25-33.95Q25.35-32.85 25.5-31.4 25.65-29.95 25.85-28.55 26.05-27.15 26.3-26.05L26.3-26.05Q25.9-25.7 25.33-25.58 24.75-25.45 24.05-25.45L24.05-25.45Q23.95-27 23.25-28.45 22.55-29.9 20.83-30.85 19.1-31.8 15.85-31.8L15.85-31.8 10.15-31.8 11.2-33.8Q15.15-33.8 17.98-33.83 20.8-33.85 22.63-33.9 24.45-33.95 25.25-33.95ZM39.9-22.4L45.45-22.4Q45.45-21.9 45.35-21.28 45.25-20.65 44.95-20.15L44.95-20.15Q43.5-20.15 42.22-19.98 40.95-19.8 39.9-19.45L39.9-19.45 39.9-22.4ZM35.85-11.1L35.85-24.4Q35.85-28.15 37.37-30.68 38.9-33.2 41.3-34.45 43.7-35.7 46.3-35.7L46.3-35.7Q48.25-35.7 49.25-35.33 50.25-34.95 51.05-34.45L51.05-34.45Q50.95-32.9 50.9-31.43 50.85-29.95 50.85-28.6L50.85-28.6Q50.2-28.4 49.45-28.3 48.7-28.2 48-28.2L48-28.2Q48-30.25 47.1-31.6 46.2-32.95 44.1-32.95L44.1-32.95Q42.75-32.95 41.92-32.13 41.1-31.3 40.72-29.75 40.35-28.2 40.35-25.95L40.35-25.95 40.35-11.1 35.85-11.1ZM32.55-22.4L36.6-22.4 36.6-19.55Q35.35-19.9 34.05-20.03 32.75-20.15 31.85-20.15L31.85-20.15Q31.85-20.8 32.02-21.35 32.2-21.9 32.55-22.4L32.55-22.4ZM40.35-11.35L40.35-7.35Q40.35-5.2 40.8-4.08 41.25-2.95 42.25-2.53 43.25-2.1 44.8-2L44.8-2Q44.95-1.6 45-1.07 45.05-0.55 45.05 0.15L45.05 0.15Q44.3 0.1 43.27 0.08 42.25 0.05 41.1 0.03 39.95 0 38.75 0L38.75 0Q37 0 35.07 0.03 33.15 0.05 32.15 0.15L32.15 0.15Q32.15-0.55 32.2-1.07 32.25-1.6 32.4-2L32.4-2Q33.75-2.1 34.5-2.48 35.25-2.85 35.55-3.78 35.85-4.7 35.85-6.35L35.85-6.35 35.85-11.35 40.35-11.35ZM57-22.4L62.55-22.4Q62.55-21.9 62.45-21.28 62.35-20.65 62.05-20.15L62.05-20.15Q60.6-20.15 59.32-19.98 58.05-19.8 57-19.45L57-19.45 57-22.4ZM52.95-11.1L52.95-24.4Q52.95-28.15 54.47-30.68 56-33.2 58.4-34.45 60.8-35.7 63.4-35.7L63.4-35.7Q65.34-35.7 66.34-35.33 67.34-34.95 68.15-34.45L68.15-34.45Q68.05-32.9 68-31.43 67.95-29.95 67.95-28.6L67.95-28.6Q67.3-28.4 66.55-28.3 65.8-28.2 65.09-28.2L65.09-28.2Q65.09-30.25 64.2-31.6 63.3-32.95 61.2-32.95L61.2-32.95Q59.85-32.95 59.02-32.13 58.2-31.3 57.82-29.75 57.45-28.2 57.45-25.95L57.45-25.95 57.45-11.1 52.95-11.1ZM49.65-22.4L53.7-22.4 53.7-19.55Q52.45-19.9 51.15-20.03 49.85-20.15 48.95-20.15L48.95-20.15Q48.95-20.8 49.12-21.35 49.3-21.9 49.65-22.4L49.65-22.4ZM57.45-11.35L57.45-7.35Q57.45-5.2 57.9-4.08 58.35-2.95 59.35-2.53 60.35-2.1 61.9-2L61.9-2Q62.05-1.6 62.1-1.07 62.15-0.55 62.15 0.15L62.15 0.15Q61.4 0.1 60.37 0.08 59.35 0.05 58.2 0.03 57.05 0 55.85 0L55.85 0Q54.1 0 52.17 0.03 50.25 0.05 49.25 0.15L49.25 0.15Q49.25-0.55 49.3-1.07 49.35-1.6 49.5-2L49.5-2Q50.85-2.1 51.6-2.48 52.35-2.85 52.65-3.78 52.95-4.7 52.95-6.35L52.95-6.35 52.95-11.35 57.45-11.35ZM77.54 0.45L77.54 0.45Q74.14 0.45 71.59-1.03 69.04-2.5 67.64-5.18 66.24-7.85 66.24-11.45L66.24-11.45Q66.24-14.85 67.69-17.55 69.14-20.25 71.69-21.8 74.24-23.35 77.54-23.35L77.54-23.35Q81.09-23.35 83.62-21.85 86.14-20.35 87.49-17.68 88.84-15 88.84-11.45L88.84-11.45Q88.84-8.05 87.42-5.35 85.99-2.65 83.47-1.1 80.94 0.45 77.54 0.45ZM77.94-1.95L77.94-1.95Q80.94-1.95 82.39-4.42 83.84-6.9 83.84-10.85L83.84-10.85Q83.84-13.95 82.92-16.23 81.99-18.5 80.44-19.73 78.89-20.95 77.04-20.95L77.04-20.95Q74.14-20.95 72.72-18.6 71.29-16.25 71.29-12.5L71.29-12.5Q71.29-9.15 72.12-6.78 72.94-4.4 74.44-3.18 75.94-1.95 77.94-1.95ZM100.89-11.35L100.89-7.35Q100.89-5.2 101.34-4.08 101.79-2.95 102.79-2.53 103.79-2.1 105.34-2L105.34-2Q105.49-1.6 105.54-1.07 105.59-0.55 105.59 0.15L105.59 0.15Q104.84 0.1 103.81 0.08 102.79 0.05 101.64 0.03 100.49 0 99.29 0L99.29 0Q97.54 0 95.62 0.03 93.69 0.05 92.69 0.15L92.69 0.15Q92.69-0.55 92.74-1.07 92.79-1.6 92.94-2L92.94-2Q94.29-2.1 95.04-2.48 95.79-2.85 96.09-3.78 96.39-4.7 96.39-6.35L96.39-6.35 96.39-11.35 100.89-11.35ZM100.04-15.35L100.89-14.65 100.89-10.7 96.39-10.7 96.39-16.25 100.89-21.15Q100.89-19.45 100.59-18.07 100.29-16.7 100.04-15.35L100.04-15.35ZM100.89-12.15L99.79-15.05Q100.34-16.45 100.64-17.35 100.94-18.25 101.29-18.85L101.29-18.85Q102.39-20.6 103.89-21.75 105.39-22.9 107.34-22.9L107.34-22.9Q109.24-22.9 110.79-21.7L110.79-21.7Q110.69-20.9 110.59-19.85 110.49-18.8 110.47-17.75 110.44-16.7 110.44-15.8L110.44-15.8Q109.99-15.65 109.22-15.5 108.44-15.35 107.59-15.35L107.59-15.35Q107.49-17.75 106.81-18.5 106.14-19.25 105.14-19.25L105.14-19.25Q104.29-19.25 103.29-18.28 102.29-17.3 101.59-15.7 100.89-14.1 100.89-12.15L100.89-12.15ZM100.89-21.15L96.39-10.7 96.39-16.25Q96.39-17.45 96.14-18.2 95.89-18.95 95.09-19.35 94.29-19.75 92.64-19.8L92.64-19.8Q92.64-20.35 92.74-20.8 92.84-21.25 93.09-21.65L93.09-21.65Q94.64-21.75 96.64-22.25 98.64-22.75 99.79-23.35L99.79-23.35Q100.24-23.2 100.56-22.73 100.89-22.25 100.89-21.15L100.89-21.15ZM122.19 0.45L122.19 0.45Q119.24 0.45 117.81-1.07 116.39-2.6 116.39-6L116.39-6 116.39-19.55Q115.64-19.8 114.84-19.98 114.04-20.15 112.79-20.2L112.79-20.2Q112.79-20.85 112.89-21.33 112.99-21.8 113.24-22.4L113.24-22.4 116.39-22.4 116.39-29Q117.39-29.25 118.36-29.8 119.34-30.35 120.09-31L120.09-31Q120.59-30.8 120.74-30.4 120.89-30 120.89-28.4L120.89-28.4 120.89-22.4 127.39-22.4Q127.39-21.9 127.29-21.33 127.19-20.75 126.94-20.2L126.94-20.2Q125.14-20.15 123.64-19.98 122.14-19.8 120.89-19.55L120.89-19.55 120.89-7.05Q120.89-5.4 121.24-4.33 121.59-3.25 122.24-2.75 122.89-2.25 123.79-2.25L123.79-2.25Q124.84-2.25 125.61-2.55 126.39-2.85 127.09-3.45L127.09-3.45Q127.74-2.7 127.84-1.8L127.84-1.8Q127.04-0.85 125.41-0.2 123.79 0.45 122.19 0.45ZM131.14 0.15L131.14 0.15Q131.14-0.35 131.19-0.93 131.24-1.5 131.39-2L131.39-2Q133.39-2 134.11-2.93 134.84-3.85 134.84-6.35L134.84-6.35 134.84-28.75Q134.84-29.95 134.61-30.73 134.39-31.5 133.59-31.9 132.78-32.3 131.09-32.3L131.09-32.3Q131.09-32.85 131.19-33.3 131.28-33.75 131.53-34.15L131.53-34.15Q132.28-34.15 133.66-34.4 135.03-34.65 136.34-35.05 137.64-35.45 138.24-35.85L138.24-35.85Q138.69-35.7 139.01-35.25 139.34-34.8 139.34-33.85L139.34-33.85 139.34-6.35Q139.34-3.85 140.01-2.93 140.69-2 142.28-2L142.28-2Q142.44-1.5 142.49-0.85 142.53-0.2 142.53 0.15L142.53 0.15Q141.69 0.1 140.74 0.08 139.78 0.05 138.81 0.03 137.84 0 136.89 0L136.89 0Q135.94 0 134.91 0.03 133.89 0.05 132.94 0.08 131.99 0.1 131.14 0.15ZM156.88 0.45L156.88 0.45Q153.33 0.45 150.98-1.15 148.63-2.75 147.46-5.48 146.28-8.2 146.28-11.45L146.28-11.45Q146.28-14.65 147.53-17.35 148.78-20.05 151.11-21.7 153.43-23.35 156.63-23.35L156.63-23.35Q159.88-23.35 161.86-21.95 163.83-20.55 164.81-18.2 165.78-15.85 165.98-13L165.98-13Q165.78-12 165.23-11.3L165.23-11.3Q164.38-11.3 162.68-11.3 160.98-11.3 158.83-11.28 156.68-11.25 154.43-11.18 152.18-11.1 150.18-11L150.18-11 150.18-13.55 160.78-13.55Q160.78-16.85 159.58-18.9 158.38-20.95 156.18-20.95L156.18-20.95Q154.98-20.95 153.83-20.23 152.68-19.5 151.93-17.68 151.18-15.85 151.18-12.5L151.18-12.5Q151.18-10.05 151.81-7.73 152.43-5.4 154.01-3.88 155.58-2.35 158.48-2.35L158.48-2.35Q160.13-2.35 161.73-3.1 163.33-3.85 164.58-5.25L164.58-5.25Q164.98-5.05 165.36-4.58 165.73-4.1 165.78-3.7L165.78-3.7Q164.08-1.45 161.86-0.5 159.63 0.45 156.88 0.45ZM185.73-21.6L185.73-21.6Q185.68-20.4 185.66-19.05 185.63-17.7 185.83-16.4L185.83-16.4Q185.33-16.1 184.68-15.95 184.03-15.8 183.33-15.8L183.33-15.8Q183.23-17.2 182.51-18.45 181.78-19.7 180.58-20.5 179.38-21.3 177.73-21.3L177.73-21.3Q176.18-21.3 175.26-20.55 174.33-19.8 174.33-18.55L174.33-18.55Q174.33-17.7 174.71-17.05 175.08-16.4 176.36-15.68 177.63-14.95 180.28-13.9L180.28-13.9Q182.98-12.9 184.53-11.9 186.08-10.9 186.73-9.65 187.38-8.4 187.38-6.6L187.38-6.6Q187.38-4.5 186.18-2.9 184.98-1.3 182.91-0.43 180.83 0.45 178.23 0.45L178.23 0.45Q175.23 0.45 173.46-0.03 171.68-0.5 169.98-1.4L169.98-1.4Q170.08-2.2 170.11-3.35 170.13-4.5 170.13-5.65 170.13-6.8 170.03-7.6L170.03-7.6Q170.43-7.9 171.16-8.03 171.88-8.15 172.63-8.15L172.63-8.15Q173.03-5 174.58-3.45 176.13-1.9 178.73-1.9L178.73-1.9Q180.78-1.9 181.91-2.8 183.03-3.7 183.03-5.1L183.03-5.1Q183.03-6 182.61-6.65 182.18-7.3 181.03-7.95 179.88-8.6 177.63-9.5L177.63-9.5Q174.93-10.6 173.31-11.55 171.68-12.5 170.96-13.8 170.23-15.1 170.23-17.1L170.23-17.1Q170.23-18.7 171.03-19.88 171.83-21.05 173.11-21.83 174.38-22.6 175.83-22.98 177.28-23.35 178.53-23.35L178.53-23.35Q180.78-23.35 182.48-22.9 184.18-22.45 185.73-21.6ZM207.13-21.6L207.13-21.6Q207.08-20.4 207.05-19.05 207.03-17.7 207.23-16.4L207.23-16.4Q206.73-16.1 206.08-15.95 205.43-15.8 204.73-15.8L204.73-15.8Q204.63-17.2 203.9-18.45 203.18-19.7 201.98-20.5 200.78-21.3 199.13-21.3L199.13-21.3Q197.58-21.3 196.65-20.55 195.73-19.8 195.73-18.55L195.73-18.55Q195.73-17.7 196.1-17.05 196.48-16.4 197.75-15.68 199.03-14.95 201.68-13.9L201.68-13.9Q204.38-12.9 205.93-11.9 207.48-10.9 208.13-9.65 208.78-8.4 208.78-6.6L208.78-6.6Q208.78-4.5 207.58-2.9 206.38-1.3 204.3-0.43 202.23 0.45 199.63 0.45L199.63 0.45Q196.63 0.45 194.85-0.03 193.08-0.5 191.38-1.4L191.38-1.4Q191.48-2.2 191.5-3.35 191.53-4.5 191.53-5.65 191.53-6.8 191.43-7.6L191.43-7.6Q191.83-7.9 192.55-8.03 193.28-8.15 194.03-8.15L194.03-8.15Q194.43-5 195.98-3.45 197.53-1.9 200.13-1.9L200.13-1.9Q202.18-1.9 203.3-2.8 204.43-3.7 204.43-5.1L204.43-5.1Q204.43-6 204-6.65 203.58-7.3 202.43-7.95 201.28-8.6 199.03-9.5L199.03-9.5Q196.33-10.6 194.7-11.55 193.08-12.5 192.35-13.8 191.63-15.1 191.63-17.1L191.63-17.1Q191.63-18.7 192.43-19.88 193.23-21.05 194.5-21.83 195.78-22.6 197.23-22.98 198.68-23.35 199.93-23.35L199.93-23.35Q202.18-23.35 203.88-22.9 205.58-22.45 207.13-21.6ZM222.62 12.25L222.62 12.25Q222.62 11.55 222.67 11.03 222.72 10.5 222.87 10.1L222.87 10.1Q224.22 10 224.97 9.63 225.72 9.25 226.02 8.33 226.32 7.4 226.32 5.75L226.32 5.75 226.32-16.25Q226.32-17.45 226.07-18.2 225.82-18.95 225.02-19.35 224.22-19.75 222.57-19.8L222.57-19.8Q222.57-20.35 222.67-20.8 222.77-21.25 223.02-21.65L223.02-21.65Q224.57-21.75 226.57-22.25 228.57-22.75 229.72-23.35L229.72-23.35Q230.17-23.2 230.5-22.73 230.82-22.25 230.82-21.15L230.82-21.15Q230.82-20 230.5-18.98 230.17-17.95 229.62-16.25L229.62-16.25 230.82-15.3 230.82 4.75Q230.82 6.9 231.27 8.03 231.72 9.15 232.72 9.58 233.72 10 235.27 10.1L235.27 10.1Q235.42 10.5 235.47 11.03 235.52 11.55 235.52 12.25L235.52 12.25Q234.77 12.2 233.75 12.18 232.72 12.15 231.57 12.13 230.42 12.1 229.22 12.1L229.22 12.1Q227.47 12.1 225.55 12.13 223.62 12.15 222.62 12.25ZM234.97 0.45L234.97 0.45Q233.57 0.45 232.5 0.2 231.42-0.05 230.12-0.45L230.12-0.45 230.12-4.3Q231.12-3.25 232.3-2.55 233.47-1.85 235.22-1.85L235.22-1.85Q236.27-1.85 237.5-2.27 238.72-2.7 239.87-3.75 241.02-4.8 241.75-6.7 242.47-8.6 242.47-11.6L242.47-11.6Q242.47-14.25 241.75-16.18 241.02-18.1 239.75-19.15 238.47-20.2 236.87-20.2L236.87-20.2Q235.42-20.2 234.02-19.28 232.62-18.35 231.72-16.25 230.82-14.15 230.82-10.65L230.82-10.65 229.37-15.95Q230.02-17.55 230.5-18.4 230.97-19.25 231.22-19.65L231.22-19.65Q231.67-20.4 232.65-21.28 233.62-22.15 235.02-22.75 236.42-23.35 238.07-23.35L238.07-23.35Q241.02-23.35 243.1-22.2 245.17-21.05 246.3-18.7 247.42-16.35 247.42-12.7L247.42-12.7Q247.42-9 245.87-6 244.32-3 241.52-1.28 238.72 0.45 234.97 0.45ZM259.47-11.35L259.47-7.35Q259.47-5.2 259.92-4.08 260.37-2.95 261.37-2.53 262.37-2.1 263.92-2L263.92-2Q264.07-1.6 264.12-1.07 264.17-0.55 264.17 0.15L264.17 0.15Q263.42 0.1 262.4 0.08 261.37 0.05 260.22 0.03 259.07 0 257.87 0L257.87 0Q256.12 0 254.2 0.03 252.27 0.05 251.27 0.15L251.27 0.15Q251.27-0.55 251.32-1.07 251.37-1.6 251.52-2L251.52-2Q252.87-2.1 253.62-2.48 254.37-2.85 254.67-3.78 254.97-4.7 254.97-6.35L254.97-6.35 254.97-11.35 259.47-11.35ZM258.62-15.35L259.47-14.65 259.47-10.7 254.97-10.7 254.97-16.25 259.47-21.15Q259.47-19.45 259.17-18.07 258.87-16.7 258.62-15.35L258.62-15.35ZM259.47-12.15L258.37-15.05Q258.92-16.45 259.22-17.35 259.52-18.25 259.87-18.85L259.87-18.85Q260.97-20.6 262.47-21.75 263.97-22.9 265.92-22.9L265.92-22.9Q267.82-22.9 269.37-21.7L269.37-21.7Q269.27-20.9 269.17-19.85 269.07-18.8 269.05-17.75 269.02-16.7 269.02-15.8L269.02-15.8Q268.57-15.65 267.8-15.5 267.02-15.35 266.17-15.35L266.17-15.35Q266.07-17.75 265.4-18.5 264.72-19.25 263.72-19.25L263.72-19.25Q262.87-19.25 261.87-18.28 260.87-17.3 260.17-15.7 259.47-14.1 259.47-12.15L259.47-12.15ZM259.47-21.15L254.97-10.7 254.97-16.25Q254.97-17.45 254.72-18.2 254.47-18.95 253.67-19.35 252.87-19.75 251.22-19.8L251.22-19.8Q251.22-20.35 251.32-20.8 251.42-21.25 251.67-21.65L251.67-21.65Q253.22-21.75 255.22-22.25 257.22-22.75 258.37-23.35L258.37-23.35Q258.82-23.2 259.15-22.73 259.47-22.25 259.47-21.15L259.47-21.15ZM283.67 0.45L283.67 0.45Q280.27 0.45 277.72-1.03 275.17-2.5 273.77-5.18 272.37-7.85 272.37-11.45L272.37-11.45Q272.37-14.85 273.82-17.55 275.27-20.25 277.82-21.8 280.37-23.35 283.67-23.35L283.67-23.35Q287.22-23.35 289.74-21.85 292.27-20.35 293.62-17.68 294.97-15 294.97-11.45L294.97-11.45Q294.97-8.05 293.54-5.35 292.12-2.65 289.59-1.1 287.07 0.45 283.67 0.45ZM284.07-1.95L284.07-1.95Q287.07-1.95 288.52-4.42 289.97-6.9 289.97-10.85L289.97-10.85Q289.97-13.95 289.04-16.23 288.12-18.5 286.57-19.73 285.02-20.95 283.17-20.95L283.17-20.95Q280.27-20.95 278.84-18.6 277.42-16.25 277.42-12.5L277.42-12.5Q277.42-9.15 278.24-6.78 279.07-4.4 280.57-3.18 282.07-1.95 284.07-1.95ZM298.72 12.45L298.72 12.45Q298.37 12.25 298.04 11.9 297.72 11.55 297.62 11.05L297.62 11.05Q299.57 8.85 300.62 7.08 301.67 5.3 302.09 3.4 302.52 1.5 302.52-0.95L302.52-0.95 302.52-16.25Q302.52-17.45 302.29-18.23 302.07-19 301.27-19.4 300.47-19.8 298.77-19.8L298.77-19.8Q298.77-20.35 298.87-20.8 298.97-21.25 299.22-21.65L299.22-21.65Q299.97-21.65 301.34-21.9 302.72-22.15 304.02-22.55 305.32-22.95 305.92-23.35L305.92-23.35Q306.37-23.2 306.69-22.75 307.02-22.3 307.02-21.35L307.02-21.35 307.02-1.65Q307.02 1.05 306.29 3.28 305.57 5.5 304.37 7.25 303.17 9 301.69 10.3 300.22 11.6 298.72 12.45ZM304.37-29L304.37-29Q303.12-29 302.27-29.85 301.42-30.7 301.42-31.9L301.42-31.9Q301.42-33.25 302.32-34.1 303.22-34.95 304.37-34.95L304.37-34.95Q305.72-34.95 306.54-34.1 307.37-33.25 307.37-31.9L307.37-31.9Q307.37-30.75 306.49-29.88 305.62-29 304.37-29ZM323.71 0.45L323.71 0.45Q320.16 0.45 317.81-1.15 315.46-2.75 314.29-5.48 313.11-8.2 313.11-11.45L313.11-11.45Q313.11-14.65 314.36-17.35 315.61-20.05 317.94-21.7 320.26-23.35 323.46-23.35L323.46-23.35Q326.71-23.35 328.69-21.95 330.66-20.55 331.64-18.2 332.61-15.85 332.81-13L332.81-13Q332.61-12 332.06-11.3L332.06-11.3Q331.21-11.3 329.51-11.3 327.81-11.3 325.66-11.28 323.51-11.25 321.26-11.18 319.01-11.1 317.01-11L317.01-11 317.01-13.55 327.61-13.55Q327.61-16.85 326.41-18.9 325.21-20.95 323.01-20.95L323.01-20.95Q321.81-20.95 320.66-20.23 319.51-19.5 318.76-17.68 318.01-15.85 318.01-12.5L318.01-12.5Q318.01-10.05 318.64-7.73 319.26-5.4 320.84-3.88 322.41-2.35 325.31-2.35L325.31-2.35Q326.96-2.35 328.56-3.1 330.16-3.85 331.41-5.25L331.41-5.25Q331.81-5.05 332.19-4.58 332.56-4.1 332.61-3.7L332.61-3.7Q330.91-1.45 328.69-0.5 326.46 0.45 323.71 0.45ZM355.41-3.9L355.41-3.9Q354.06-1.75 352.06-0.65 350.06 0.45 347.21 0.45L347.21 0.45Q344.66 0.45 342.29-0.88 339.91-2.2 338.36-4.83 336.81-7.45 336.81-11.35L336.81-11.35Q336.81-14.35 338.01-17.1 339.21-19.85 341.54-21.6 343.86-23.35 347.21-23.35L347.21-23.35Q349.51-23.35 351.44-22.8 353.36-22.25 354.76-21.1L354.76-21.1Q354.56-19.65 354.49-18.25 354.41-16.85 354.41-15.4L354.41-15.4Q354.01-15.2 353.34-15.1 352.66-15 352.11-15L352.11-15Q351.81-17.9 350.41-19.45 349.01-21 346.81-21L346.81-21Q344.36-21 342.91-18.7 341.46-16.4 341.46-12.1L341.46-12.1Q341.46-9.6 342.29-7.38 343.11-5.15 344.71-3.78 346.31-2.4 348.61-2.4L348.61-2.4Q350.21-2.4 351.64-3.15 353.06-3.9 354.16-5.3L354.16-5.3Q354.56-5.1 354.91-4.73 355.26-4.35 355.41-3.9ZM367.56 0.45L367.56 0.45Q364.61 0.45 363.18-1.07 361.76-2.6 361.76-6L361.76-6 361.76-19.55Q361.01-19.8 360.21-19.98 359.41-20.15 358.16-20.2L358.16-20.2Q358.16-20.85 358.26-21.33 358.36-21.8 358.61-22.4L358.61-22.4 361.76-22.4 361.76-29Q362.76-29.25 363.73-29.8 364.71-30.35 365.46-31L365.46-31Q365.96-30.8 366.11-30.4 366.26-30 366.26-28.4L366.26-28.4 366.26-22.4 372.76-22.4Q372.76-21.9 372.66-21.33 372.56-20.75 372.31-20.2L372.31-20.2Q370.51-20.15 369.01-19.98 367.51-19.8 366.26-19.55L366.26-19.55 366.26-7.05Q366.26-5.4 366.61-4.33 366.96-3.25 367.61-2.75 368.26-2.25 369.16-2.25L369.16-2.25Q370.21-2.25 370.98-2.55 371.76-2.85 372.46-3.45L372.46-3.45Q373.11-2.7 373.21-1.8L373.21-1.8Q372.41-0.85 370.78-0.2 369.16 0.45 367.56 0.45ZM395.1 0.45L395.1 0.45Q392.15 0.45 390.73-1.07 389.3-2.6 389.3-6L389.3-6 389.3-19.55Q388.55-19.8 387.75-19.98 386.95-20.15 385.7-20.2L385.7-20.2Q385.7-20.85 385.8-21.33 385.9-21.8 386.15-22.4L386.15-22.4 389.3-22.4 389.3-29Q390.3-29.25 391.28-29.8 392.25-30.35 393-31L393-31Q393.5-30.8 393.65-30.4 393.8-30 393.8-28.4L393.8-28.4 393.8-22.4 400.3-22.4Q400.3-21.9 400.2-21.33 400.1-20.75 399.85-20.2L399.85-20.2Q398.05-20.15 396.55-19.98 395.05-19.8 393.8-19.55L393.8-19.55 393.8-7.05Q393.8-5.4 394.15-4.33 394.5-3.25 395.15-2.75 395.8-2.25 396.7-2.25L396.7-2.25Q397.75-2.25 398.53-2.55 399.3-2.85 400-3.45L400-3.45Q400.65-2.7 400.75-1.8L400.75-1.8Q399.95-0.85 398.33-0.2 396.7 0.45 395.1 0.45ZM412.3-11.35L412.3-7.35Q412.3-5.2 412.75-4.08 413.2-2.95 414.2-2.53 415.2-2.1 416.75-2L416.75-2Q416.9-1.6 416.95-1.07 417-0.55 417 0.15L417 0.15Q416.25 0.1 415.23 0.08 414.2 0.05 413.05 0.03 411.9 0 410.7 0L410.7 0Q408.95 0 407.03 0.03 405.1 0.05 404.1 0.15L404.1 0.15Q404.1-0.55 404.15-1.07 404.2-1.6 404.35-2L404.35-2Q405.7-2.1 406.45-2.48 407.2-2.85 407.5-3.78 407.8-4.7 407.8-6.35L407.8-6.35 407.8-11.35 412.3-11.35ZM411.45-15.35L412.3-14.65 412.3-10.7 407.8-10.7 407.8-16.25 412.3-21.15Q412.3-19.45 412-18.07 411.7-16.7 411.45-15.35L411.45-15.35ZM412.3-12.15L411.2-15.05Q411.75-16.45 412.05-17.35 412.35-18.25 412.7-18.85L412.7-18.85Q413.8-20.6 415.3-21.75 416.8-22.9 418.75-22.9L418.75-22.9Q420.65-22.9 422.2-21.7L422.2-21.7Q422.1-20.9 422-19.85 421.9-18.8 421.88-17.75 421.85-16.7 421.85-15.8L421.85-15.8Q421.4-15.65 420.63-15.5 419.85-15.35 419-15.35L419-15.35Q418.9-17.75 418.23-18.5 417.55-19.25 416.55-19.25L416.55-19.25Q415.7-19.25 414.7-18.28 413.7-17.3 413-15.7 412.3-14.1 412.3-12.15L412.3-12.15ZM412.3-21.15L407.8-10.7 407.8-16.25Q407.8-17.45 407.55-18.2 407.3-18.95 406.5-19.35 405.7-19.75 404.05-19.8L404.05-19.8Q404.05-20.35 404.15-20.8 404.25-21.25 404.5-21.65L404.5-21.65Q406.05-21.75 408.05-22.25 410.05-22.75 411.2-23.35L411.2-23.35Q411.65-23.2 411.98-22.73 412.3-22.25 412.3-21.15L412.3-21.15ZM443.8-3.9L443.8-3.9Q442.45-1.75 440.45-0.65 438.45 0.45 435.6 0.45L435.6 0.45Q433.05 0.45 430.67-0.88 428.3-2.2 426.75-4.83 425.2-7.45 425.2-11.35L425.2-11.35Q425.2-14.35 426.4-17.1 427.6-19.85 429.92-21.6 432.25-23.35 435.6-23.35L435.6-23.35Q437.9-23.35 439.82-22.8 441.75-22.25 443.15-21.1L443.15-21.1Q442.95-19.65 442.87-18.25 442.8-16.85 442.8-15.4L442.8-15.4Q442.4-15.2 441.72-15.1 441.05-15 440.5-15L440.5-15Q440.2-17.9 438.8-19.45 437.4-21 435.2-21L435.2-21Q432.75-21 431.3-18.7 429.85-16.4 429.85-12.1L429.85-12.1Q429.85-9.6 430.67-7.38 431.5-5.15 433.1-3.78 434.7-2.4 437-2.4L437-2.4Q438.6-2.4 440.02-3.15 441.45-3.9 442.55-5.3L442.55-5.3Q442.95-5.1 443.3-4.73 443.65-4.35 443.8-3.9ZM447.35 0.15L447.35 0.15Q447.35-0.35 447.4-0.93 447.45-1.5 447.6-2L447.6-2Q449.6-2 450.32-2.93 451.05-3.85 451.05-6.35L451.05-6.35 451.05-28.75Q451.05-29.95 450.82-30.73 450.6-31.5 449.8-31.9 449-32.3 447.3-32.3L447.3-32.3Q447.3-32.85 447.4-33.3 447.5-33.75 447.75-34.15L447.75-34.15Q448.5-34.15 449.87-34.4 451.25-34.65 452.55-35.05 453.85-35.45 454.45-35.85L454.45-35.85Q454.9-35.7 455.22-35.25 455.55-34.8 455.55-33.85L455.55-33.85 455.55-6.35Q455.55-3.85 456.22-2.93 456.9-2 458.5-2L458.5-2Q458.65-1.5 458.7-0.85 458.75-0.2 458.75 0.15L458.75 0.15Q457.45 0.05 456 0.03 454.55 0 453.1 0L453.1 0Q452.15 0 451.12 0.03 450.1 0.05 449.15 0.08 448.2 0.1 447.35 0.15ZM465.15 0.45L465.15 0.45Q464-1.3 462.15-3.65 460.3-6 458.25-8.35 456.2-10.7 454.35-12.45L454.35-12.45 454.3-11.65 459.25-16.15Q461-17.7 461.72-18.68 462.45-19.65 462.45-20.15L462.45-20.15Q462.45-20.55 462.07-20.75 461.7-20.95 461-20.95L461-20.95Q460.85-21.45 460.77-21.95 460.7-22.45 460.7-23L460.7-23Q461.8-22.95 462.72-22.93 463.65-22.9 464.45-22.9 465.25-22.9 465.9-22.9L465.9-22.9Q466.75-22.9 468-22.93 469.25-22.95 470.6-23L470.6-23Q470.6-22.5 470.52-21.93 470.45-21.35 470.25-20.9L470.25-20.9Q469.3-20.9 468.37-20.6 467.45-20.3 466.42-19.65 465.4-19 464.15-17.85L464.15-17.85 458.65-12.85 458.55-14.45Q460.3-12.65 462.15-10.58 464-8.5 466.6-5.3L466.6-5.3Q467.6-4.1 468.32-3.45 469.05-2.8 469.85-2.53 470.65-2.25 471.8-2.15L471.8-2.15Q471.8-1.45 471.75-0.93 471.7-0.4 471.55 0L471.55 0Q470.35 0 469.3 0.05 468.25 0.1 467.25 0.18 466.25 0.25 465.15 0.45ZM474.64 0.15L474.64 0.15Q474.64-0.35 474.69-0.93 474.74-1.5 474.89-2L474.89-2Q476.89-2 477.62-2.93 478.34-3.85 478.34-6.35L478.34-6.35 478.34-16.25Q478.34-17.45 478.12-18.23 477.89-19 477.09-19.4 476.29-19.8 474.59-19.8L474.59-19.8Q474.59-20.35 474.69-20.8 474.79-21.25 475.04-21.65L475.04-21.65Q475.79-21.65 477.17-21.9 478.54-22.15 479.84-22.55 481.14-22.95 481.74-23.35L481.74-23.35Q482.19-23.2 482.52-22.75 482.84-22.3 482.84-21.35L482.84-21.35 482.84-6.35Q482.84-3.85 483.52-2.93 484.19-2 485.79-2L485.79-2Q485.94-1.5 485.99-0.85 486.04-0.2 486.04 0.15L486.04 0.15Q485.19 0.1 484.24 0.08 483.29 0.05 482.32 0.03 481.34 0 480.39 0L480.39 0Q479.44 0 478.42 0.03 477.39 0.05 476.44 0.08 475.49 0.1 474.64 0.15ZM480.19-29L480.19-29Q478.94-29 478.09-29.85 477.24-30.7 477.24-31.9L477.24-31.9Q477.24-33.25 478.14-34.1 479.04-34.95 480.19-34.95L480.19-34.95Q481.54-34.95 482.37-34.1 483.19-33.25 483.19-31.9L483.19-31.9Q483.19-30.75 482.32-29.88 481.44-29 480.19-29ZM497.89-21.15L493.39-10.7 493.39-16.25Q493.39-17.45 493.14-18.2 492.89-18.95 492.09-19.35 491.29-19.75 489.64-19.8L489.64-19.8Q489.64-20.35 489.74-20.8 489.84-21.25 490.09-21.65L490.09-21.65Q491.64-21.75 493.64-22.25 495.64-22.75 496.79-23.35L496.79-23.35Q497.24-23.2 497.57-22.73 497.89-22.25 497.89-21.15L497.89-21.15ZM512.69-14.95L512.69-6.35Q512.69-3.75 513.42-2.88 514.14-2 515.64-2L515.64-2Q515.79-1.55 515.84-1.05 515.89-0.55 515.89 0.15L515.89 0.15Q514.79 0.05 513.39 0.03 511.99 0 510.44 0L510.44 0Q509.44 0 508.34 0.03 507.24 0.05 506.27 0.08 505.29 0.1 504.49 0.15L504.49 0.15Q504.49-0.55 504.54-1.07 504.59-1.6 504.74-2L504.74-2Q506.54-2 507.37-2.93 508.19-3.85 508.19-6.35L508.19-6.35 508.19-13.95Q508.19-17.5 506.89-18.78 505.59-20.05 503.54-20.05L503.54-20.05Q502.24-20.05 500.94-19.23 499.64-18.4 498.77-16.57 497.89-14.75 497.89-11.7L497.89-11.7 497.89-6.35Q497.89-3.85 498.64-2.93 499.39-2 501.34-2L501.34-2Q501.49-1.55 501.54-1.05 501.59-0.55 501.59 0.15L501.59 0.15Q500.89 0.1 499.89 0.08 498.89 0.05 497.79 0.03 496.69 0 495.64 0L495.64 0Q494.64 0 493.54 0.03 492.44 0.05 491.44 0.08 490.44 0.1 489.69 0.15L489.69 0.15Q489.69-0.55 489.74-1.07 489.79-1.6 489.94-2L489.94-2Q491.89-2 492.64-2.93 493.39-3.85 493.39-6.35L493.39-6.35 493.39-16.25 497.89-21.15Q497.89-20.55 497.84-19.8 497.79-19.05 497.54-18.2L497.54-18.2Q497.69-18.45 497.84-18.78 497.99-19.1 498.29-19.5L498.29-19.5Q499.14-20.65 501.02-21.88 502.89-23.1 505.54-23.1L505.54-23.1Q507.44-23.1 509.07-22.33 510.69-21.55 511.69-19.78 512.69-18 512.69-14.95L512.69-14.95ZM528.44 12.45L528.44 12.45Q525.39 12.45 523.46 11.68 521.54 10.9 520.64 9.4 519.74 7.9 519.74 5.7L519.74 5.7Q519.74 3.8 520.76 2.4 521.79 1 523.64 0.2L523.64 0.2 526.14 0.4Q524.94 1.3 524.49 2.3 524.04 3.3 524.04 4.65L524.04 4.65Q524.04 7.2 525.31 8.5 526.59 9.8 529.64 9.8L529.64 9.8Q532.94 9.8 534.81 8.15 536.69 6.5 536.69 4.35L536.69 4.35Q536.69 3.05 536.06 2.3 535.44 1.55 533.66 1.2 531.89 0.85 528.44 0.85L528.44 0.85Q526.19 0.85 524.76 0.63 523.34 0.4 522.51-0.13 521.69-0.65 521.36-1.45 521.04-2.25 521.04-3.4L521.04-3.4Q521.04-5.05 522.01-6.63 522.99-8.2 524.54-9.45L524.54-9.45 526.39-8.15Q525.39-7.3 524.96-6.55 524.54-5.8 524.54-5.25L524.54-5.25Q524.54-4.35 525.01-3.9 525.49-3.45 527.04-3.3 528.59-3.15 531.79-3.15L531.79-3.15Q535.14-3.15 537.11-2.6 539.09-2.05 539.96-0.85 540.84 0.35 540.84 2.4L540.84 2.4Q540.84 4.1 539.91 5.88 538.99 7.65 537.34 9.13 535.69 10.6 533.41 11.53 531.14 12.45 528.44 12.45ZM529.64-6.95L529.64-6.95Q527.29-6.95 525.19-7.85 523.09-8.75 521.81-10.55 520.54-12.35 520.54-15.05L520.54-15.05Q520.54-17.35 521.54-19.23 522.54-21.1 524.56-22.23 526.59-23.35 529.54-23.35L529.54-23.35Q532.04-23.35 533.76-22.53 535.49-21.7 536.59-20.43 537.69-19.15 538.19-17.78 538.69-16.4 538.69-15.35L538.69-15.35Q538.69-13.05 537.66-11.13 536.64-9.2 534.61-8.08 532.59-6.95 529.64-6.95ZM530.24-9.25L530.24-9.25Q531.89-9.25 532.94-10.63 533.99-12 533.99-14.6L533.99-14.6Q533.99-17.25 532.69-19.18 531.39-21.1 529.04-21.1L529.04-21.1Q527.04-21.1 526.09-19.43 525.14-17.75 525.14-15.7L525.14-15.7Q525.14-12.6 526.49-10.93 527.84-9.25 530.24-9.25ZM541.24-19.8L541.24-19.8Q540.44-20 539.31-20.2 538.19-20.4 537.11-20.55 536.04-20.7 535.29-20.75L535.29-20.75 531.79-22.9 540.89-22.9Q541.09-22.25 541.16-21.43 541.24-20.6 541.24-19.8ZM563.08-22.4L568.63-22.4Q568.63-21.9 568.53-21.28 568.43-20.65 568.13-20.15L568.13-20.15Q566.68-20.15 565.41-19.98 564.13-19.8 563.08-19.45L563.08-19.45 563.08-22.4ZM559.03-11.1L559.03-24.4Q559.03-28.15 560.56-30.68 562.08-33.2 564.48-34.45 566.88-35.7 569.48-35.7L569.48-35.7Q571.43-35.7 572.43-35.33 573.43-34.95 574.23-34.45L574.23-34.45Q574.13-32.9 574.08-31.43 574.03-29.95 574.03-28.6L574.03-28.6Q573.38-28.4 572.63-28.3 571.88-28.2 571.18-28.2L571.18-28.2Q571.18-30.25 570.28-31.6 569.38-32.95 567.28-32.95L567.28-32.95Q565.93-32.95 565.11-32.13 564.28-31.3 563.91-29.75 563.53-28.2 563.53-25.95L563.53-25.95 563.53-11.1 559.03-11.1ZM555.73-22.4L559.78-22.4 559.78-19.55Q558.53-19.9 557.23-20.03 555.93-20.15 555.03-20.15L555.03-20.15Q555.03-20.8 555.21-21.35 555.38-21.9 555.73-22.4L555.73-22.4ZM563.53-11.35L563.53-7.35Q563.53-5.2 563.98-4.08 564.43-2.95 565.43-2.53 566.43-2.1 567.98-2L567.98-2Q568.13-1.6 568.18-1.07 568.23-0.55 568.23 0.15L568.23 0.15Q567.48 0.1 566.46 0.08 565.43 0.05 564.28 0.03 563.13 0 561.93 0L561.93 0Q560.18 0 558.26 0.03 556.33 0.05 555.33 0.15L555.33 0.15Q555.33-0.55 555.38-1.07 555.43-1.6 555.58-2L555.58-2Q556.93-2.1 557.68-2.48 558.43-2.85 558.73-3.78 559.03-4.7 559.03-6.35L559.03-6.35 559.03-11.35 563.53-11.35ZM583.63 0.45L583.63 0.45Q580.23 0.45 577.68-1.03 575.13-2.5 573.73-5.18 572.33-7.85 572.33-11.45L572.33-11.45Q572.33-14.85 573.78-17.55 575.23-20.25 577.78-21.8 580.33-23.35 583.63-23.35L583.63-23.35Q587.18-23.35 589.7-21.85 592.23-20.35 593.58-17.68 594.93-15 594.93-11.45L594.93-11.45Q594.93-8.05 593.5-5.35 592.08-2.65 589.55-1.1 587.03 0.45 583.63 0.45ZM584.03-1.95L584.03-1.95Q587.03-1.95 588.48-4.42 589.93-6.9 589.93-10.85L589.93-10.85Q589.93-13.95 589-16.23 588.08-18.5 586.53-19.73 584.98-20.95 583.13-20.95L583.13-20.95Q580.23-20.95 578.8-18.6 577.38-16.25 577.38-12.5L577.38-12.5Q577.38-9.15 578.2-6.78 579.03-4.4 580.53-3.18 582.03-1.95 584.03-1.95ZM606.98-11.35L606.98-7.35Q606.98-5.2 607.43-4.08 607.88-2.95 608.88-2.53 609.88-2.1 611.43-2L611.43-2Q611.58-1.6 611.63-1.07 611.68-0.55 611.68 0.15L611.68 0.15Q610.93 0.1 609.9 0.08 608.88 0.05 607.73 0.03 606.58 0 605.38 0L605.38 0Q603.63 0 601.7 0.03 599.78 0.05 598.78 0.15L598.78 0.15Q598.78-0.55 598.83-1.07 598.88-1.6 599.03-2L599.03-2Q600.38-2.1 601.13-2.48 601.88-2.85 602.18-3.78 602.48-4.7 602.48-6.35L602.48-6.35 602.48-11.35 606.98-11.35ZM606.13-15.35L606.98-14.65 606.98-10.7 602.48-10.7 602.48-16.25 606.98-21.15Q606.98-19.45 606.68-18.07 606.38-16.7 606.13-15.35L606.13-15.35ZM606.98-12.15L605.88-15.05Q606.43-16.45 606.73-17.35 607.03-18.25 607.38-18.85L607.38-18.85Q608.48-20.6 609.98-21.75 611.48-22.9 613.43-22.9L613.43-22.9Q615.33-22.9 616.88-21.7L616.88-21.7Q616.78-20.9 616.68-19.85 616.58-18.8 616.55-17.75 616.53-16.7 616.53-15.8L616.53-15.8Q616.08-15.65 615.3-15.5 614.53-15.35 613.68-15.35L613.68-15.35Q613.58-17.75 612.9-18.5 612.23-19.25 611.23-19.25L611.23-19.25Q610.38-19.25 609.38-18.28 608.38-17.3 607.68-15.7 606.98-14.1 606.98-12.15L606.98-12.15ZM606.98-21.15L602.48-10.7 602.48-16.25Q602.48-17.45 602.23-18.2 601.98-18.95 601.18-19.35 600.38-19.75 598.73-19.8L598.73-19.8Q598.73-20.35 598.83-20.8 598.93-21.25 599.18-21.65L599.18-21.65Q600.73-21.75 602.73-22.25 604.73-22.75 605.88-23.35L605.88-23.35Q606.33-23.2 606.65-22.73 606.98-22.25 606.98-21.15L606.98-21.15ZM645.62-21.6L645.62-21.6Q645.57-20.4 645.55-19.05 645.52-17.7 645.72-16.4L645.72-16.4Q645.22-16.1 644.57-15.95 643.92-15.8 643.22-15.8L643.22-15.8Q643.12-17.2 642.4-18.45 641.67-19.7 640.47-20.5 639.27-21.3 637.62-21.3L637.62-21.3Q636.07-21.3 635.15-20.55 634.22-19.8 634.22-18.55L634.22-18.55Q634.22-17.7 634.6-17.05 634.97-16.4 636.25-15.68 637.52-14.95 640.17-13.9L640.17-13.9Q642.87-12.9 644.42-11.9 645.97-10.9 646.62-9.65 647.27-8.4 647.27-6.6L647.27-6.6Q647.27-4.5 646.07-2.9 644.87-1.3 642.8-0.43 640.72 0.45 638.12 0.45L638.12 0.45Q635.12 0.45 633.35-0.03 631.57-0.5 629.87-1.4L629.87-1.4Q629.97-2.2 630-3.35 630.02-4.5 630.02-5.65 630.02-6.8 629.92-7.6L629.92-7.6Q630.32-7.9 631.05-8.03 631.77-8.15 632.52-8.15L632.52-8.15Q632.92-5 634.47-3.45 636.02-1.9 638.62-1.9L638.62-1.9Q640.67-1.9 641.8-2.8 642.92-3.7 642.92-5.1L642.92-5.1Q642.92-6 642.5-6.65 642.07-7.3 640.92-7.95 639.77-8.6 637.52-9.5L637.52-9.5Q634.82-10.6 633.2-11.55 631.57-12.5 630.85-13.8 630.12-15.1 630.12-17.1L630.12-17.1Q630.12-18.7 630.92-19.88 631.72-21.05 633-21.83 634.27-22.6 635.72-22.98 637.17-23.35 638.42-23.35L638.42-23.35Q640.67-23.35 642.37-22.9 644.07-22.45 645.62-21.6ZM651.12 0.15L651.12 0.15Q651.12-0.55 651.17-1.07 651.22-1.6 651.37-2L651.37-2Q653.37-2.1 654.09-2.98 654.82-3.85 654.82-6.35L654.82-6.35 654.82-16.25Q654.82-17.45 654.57-18.2 654.32-18.95 653.52-19.35 652.72-19.75 651.07-19.8L651.07-19.8Q651.07-20.35 651.17-20.8 651.27-21.25 651.52-21.65L651.52-21.65Q652.37-21.7 653.64-21.98 654.92-22.25 656.12-22.63 657.32-23 657.97-23.35L657.97-23.35Q658.42-23.2 658.74-22.75 659.07-22.3 659.07-21.35L659.07-21.35Q659.07-20.55 658.99-19.5 658.92-18.45 658.67-16.4L658.67-16.4 658.17-16.35Q658.87-18.25 659.19-18.9 659.52-19.55 659.67-19.75L659.67-19.75Q660.47-20.9 662.34-22.13 664.22-23.35 666.82-23.35L666.82-23.35Q668.92-23.35 670.67-22.4 672.42-21.45 673.22-19.15L673.22-19.15Q673.42-18.55 673.42-17.5L673.42-17.5 673.27-17.5Q673.72-18.75 674.27-19.5L674.27-19.5Q675.12-20.65 676.97-21.88 678.82-23.1 681.42-23.1L681.42-23.1Q683.32-23.1 684.92-22.33 686.52-21.55 687.49-19.78 688.47-18 688.47-14.95L688.47-14.95 688.47-6.35Q688.47-4.65 688.79-3.73 689.12-2.8 689.79-2.45 690.47-2.1 691.47-2L691.47-2Q691.62-1.55 691.67-1.05 691.72-0.55 691.72 0.15L691.72 0.15Q690.62 0.05 689.19 0.03 687.77 0 686.27 0L686.27 0Q685.27 0 684.22 0.03 683.17 0.05 682.17 0.08 681.17 0.1 680.32 0.15L680.32 0.15Q680.32-0.55 680.37-1.07 680.42-1.6 680.57-2L680.57-2Q681.92-2.1 682.67-2.48 683.42-2.85 683.72-3.78 684.02-4.7 684.02-6.35L684.02-6.35 684.02-13.95Q684.02-17.5 682.74-18.78 681.47-20.05 679.42-20.05L679.42-20.05Q678.17-20.05 676.87-19.23 675.57-18.4 674.72-16.57 673.87-14.75 673.87-11.7L673.87-11.7 673.87-6.35Q673.87-3.75 674.67-2.93 675.47-2.1 677.37-2L677.37-2Q677.52-1.55 677.57-1.05 677.62-0.55 677.62 0.15L677.62 0.15Q676.37 0.05 674.74 0.03 673.12 0 671.67 0L671.67 0Q670.22 0 668.64 0.03 667.07 0.05 665.72 0.15L665.72 0.15Q665.72-0.55 665.77-1.07 665.82-1.6 665.97-2L665.97-2Q667.32-2.1 668.07-2.48 668.82-2.85 669.12-3.78 669.42-4.7 669.42-6.35L669.42-6.35 669.42-14.2Q669.42-17.75 668.14-19.03 666.87-20.3 664.82-20.3L664.82-20.3Q663.57-20.3 662.27-19.48 660.97-18.65 660.12-16.82 659.27-15 659.27-11.95L659.27-11.95 659.27-6.35Q659.27-3.85 660.02-2.98 660.77-2.1 662.77-2L662.77-2Q662.92-1.55 662.97-1.05 663.02-0.55 663.02 0.15L663.02 0.15Q662.17 0.1 661.12 0.08 660.07 0.05 659.02 0.03 657.97 0 657.07 0L657.07 0Q656.22 0 655.12 0.03 654.02 0.05 652.97 0.08 651.92 0.1 651.12 0.15ZM710.67 0.45L710.67 0.45Q710.12 0.2 709.79-0.45 709.47-1.1 709.47-2.5L709.47-2.5Q709.47-2.95 709.52-3.58 709.57-4.2 709.72-4.7L709.72-4.7 709.82-4.7Q709.67-3.9 709.14-2.98 708.62-2.05 707.77-1.35L707.77-1.35Q706.92-0.6 705.62-0.13 704.32 0.35 702.47 0.35L702.47 0.35Q699.32 0.35 697.67-1.07 696.02-2.5 696.02-4.95L696.02-4.95Q696.02-6.9 696.94-8.28 697.87-9.65 699.34-10.58 700.82-11.5 702.54-12.05 704.27-12.6 705.92-12.9 707.57-13.2 708.82-13.4L708.82-13.4Q708.82-15.45 708.74-16.6 708.67-17.75 708.44-18.43 708.22-19.1 707.77-19.6L707.77-19.6Q707.17-20.35 706.39-20.73 705.62-21.1 704.67-21.1L704.67-21.1Q703.02-21.1 702.07-20.08 701.12-19.05 700.72-17.7 700.32-16.35 700.27-15.3L700.27-15.3Q699.72-15.3 698.89-15.38 698.07-15.45 697.67-15.65L697.67-15.65Q697.77-16.9 697.72-18.45 697.67-20 697.42-21.1L697.42-21.1Q699.47-22.15 701.74-22.75 704.02-23.35 705.92-23.35L705.92-23.35Q707.77-23.35 709.09-22.83 710.42-22.3 711.22-21.45L711.22-21.45Q712.52-20.2 712.92-18.18 713.32-16.15 713.32-12.8L713.32-12.8 713.32-7.3Q713.32-5.9 713.54-5.08 713.77-4.25 714.42-3.88 715.07-3.5 716.42-3.4L716.42-3.4Q716.42-2.9 716.37-2.27 716.32-1.65 716.12-1.1L716.12-1.1Q714.87-1.05 713.34-0.63 711.82-0.2 710.67 0.45ZM703.87-2.4L703.87-2.4Q704.97-2.4 706.12-3.13 707.27-3.85 708.04-5.4 708.82-6.95 708.82-9.45L708.82-9.45 708.82-11.35Q707.57-11.2 706.17-10.93 704.77-10.65 703.57-10.1 702.37-9.55 701.62-8.58 700.87-7.6 700.87-5.95L700.87-5.95Q700.87-4.1 701.77-3.25 702.67-2.4 703.87-2.4ZM720.21 0.15L720.21 0.15Q720.21-0.35 720.26-0.93 720.31-1.5 720.46-2L720.46-2Q722.46-2 723.19-2.93 723.91-3.85 723.91-6.35L723.91-6.35 723.91-28.75Q723.91-29.95 723.69-30.73 723.46-31.5 722.66-31.9 721.86-32.3 720.16-32.3L720.16-32.3Q720.16-32.85 720.26-33.3 720.36-33.75 720.61-34.15L720.61-34.15Q721.36-34.15 722.74-34.4 724.11-34.65 725.41-35.05 726.71-35.45 727.31-35.85L727.31-35.85Q727.76-35.7 728.09-35.25 728.41-34.8 728.41-33.85L728.41-33.85 728.41-6.35Q728.41-3.85 729.09-2.93 729.76-2 731.36-2L731.36-2Q731.51-1.5 731.56-0.85 731.61-0.2 731.61 0.15L731.61 0.15Q730.76 0.1 729.81 0.08 728.86 0.05 727.89 0.03 726.91 0 725.96 0L725.96 0Q725.01 0 723.99 0.03 722.96 0.05 722.01 0.08 721.06 0.1 720.21 0.15ZM735.16 0.15L735.16 0.15Q735.16-0.35 735.21-0.93 735.26-1.5 735.41-2L735.41-2Q737.41-2 738.14-2.93 738.86-3.85 738.86-6.35L738.86-6.35 738.86-28.75Q738.86-29.95 738.64-30.73 738.41-31.5 737.61-31.9 736.81-32.3 735.11-32.3L735.11-32.3Q735.11-32.85 735.21-33.3 735.31-33.75 735.56-34.15L735.56-34.15Q736.31-34.15 737.69-34.4 739.06-34.65 740.36-35.05 741.66-35.45 742.26-35.85L742.26-35.85Q742.71-35.7 743.04-35.25 743.36-34.8 743.36-33.85L743.36-33.85 743.36-6.35Q743.36-3.85 744.04-2.93 744.71-2 746.31-2L746.31-2Q746.46-1.5 746.51-0.85 746.56-0.2 746.56 0.15L746.56 0.15Q745.71 0.1 744.76 0.08 743.81 0.05 742.84 0.03 741.86 0 740.91 0L740.91 0Q739.96 0 738.94 0.03 737.91 0.05 736.96 0.08 736.01 0.1 735.16 0.15ZM771.61 0.45L771.61 0.45Q768.21 0.45 765.66-1.03 763.11-2.5 761.71-5.18 760.31-7.85 760.31-11.45L760.31-11.45Q760.31-14.85 761.76-17.55 763.21-20.25 765.76-21.8 768.31-23.35 771.61-23.35L771.61-23.35Q775.16-23.35 777.68-21.85 780.21-20.35 781.56-17.68 782.91-15 782.91-11.45L782.91-11.45Q782.91-8.05 781.48-5.35 780.06-2.65 777.53-1.1 775.01 0.45 771.61 0.45ZM772.01-1.95L772.01-1.95Q775.01-1.95 776.46-4.42 777.91-6.9 777.91-10.85L777.91-10.85Q777.91-13.95 776.98-16.23 776.06-18.5 774.51-19.73 772.96-20.95 771.11-20.95L771.11-20.95Q768.21-20.95 766.78-18.6 765.36-16.25 765.36-12.5L765.36-12.5Q765.36-9.15 766.18-6.78 767.01-4.4 768.51-3.18 770.01-1.95 772.01-1.95ZM794.95-11.35L794.95-7.35Q794.95-5.2 795.4-4.08 795.85-2.95 796.85-2.53 797.85-2.1 799.4-2L799.4-2Q799.55-1.6 799.6-1.07 799.65-0.55 799.65 0.15L799.65 0.15Q798.9 0.1 797.88 0.08 796.85 0.05 795.7 0.03 794.55 0 793.35 0L793.35 0Q791.6 0 789.68 0.03 787.75 0.05 786.75 0.15L786.75 0.15Q786.75-0.55 786.8-1.07 786.85-1.6 787-2L787-2Q788.35-2.1 789.1-2.48 789.85-2.85 790.15-3.78 790.45-4.7 790.45-6.35L790.45-6.35 790.45-11.35 794.95-11.35ZM794.1-15.35L794.95-14.65 794.95-10.7 790.45-10.7 790.45-16.25 794.95-21.15Q794.95-19.45 794.65-18.07 794.35-16.7 794.1-15.35L794.1-15.35ZM794.95-12.15L793.85-15.05Q794.4-16.45 794.7-17.35 795-18.25 795.35-18.85L795.35-18.85Q796.45-20.6 797.95-21.75 799.45-22.9 801.4-22.9L801.4-22.9Q803.3-22.9 804.85-21.7L804.85-21.7Q804.75-20.9 804.65-19.85 804.55-18.8 804.53-17.75 804.5-16.7 804.5-15.8L804.5-15.8Q804.05-15.65 803.28-15.5 802.5-15.35 801.65-15.35L801.65-15.35Q801.55-17.75 800.88-18.5 800.2-19.25 799.2-19.25L799.2-19.25Q798.35-19.25 797.35-18.28 796.35-17.3 795.65-15.7 794.95-14.1 794.95-12.15L794.95-12.15ZM794.95-21.15L790.45-10.7 790.45-16.25Q790.45-17.45 790.2-18.2 789.95-18.95 789.15-19.35 788.35-19.75 786.7-19.8L786.7-19.8Q786.7-20.35 786.8-20.8 786.9-21.25 787.15-21.65L787.15-21.65Q788.7-21.75 790.7-22.25 792.7-22.75 793.85-23.35L793.85-23.35Q794.3-23.2 794.63-22.73 794.95-22.25 794.95-21.15L794.95-21.15ZM816.6 12.45L816.6 12.45Q813.55 12.45 811.63 11.68 809.7 10.9 808.8 9.4 807.9 7.9 807.9 5.7L807.9 5.7Q807.9 3.8 808.93 2.4 809.95 1 811.8 0.2L811.8 0.2 814.3 0.4Q813.1 1.3 812.65 2.3 812.2 3.3 812.2 4.65L812.2 4.65Q812.2 7.2 813.48 8.5 814.75 9.8 817.8 9.8L817.8 9.8Q821.1 9.8 822.98 8.15 824.85 6.5 824.85 4.35L824.85 4.35Q824.85 3.05 824.23 2.3 823.6 1.55 821.83 1.2 820.05 0.85 816.6 0.85L816.6 0.85Q814.35 0.85 812.93 0.63 811.5 0.4 810.68-0.13 809.85-0.65 809.53-1.45 809.2-2.25 809.2-3.4L809.2-3.4Q809.2-5.05 810.18-6.63 811.15-8.2 812.7-9.45L812.7-9.45 814.55-8.15Q813.55-7.3 813.13-6.55 812.7-5.8 812.7-5.25L812.7-5.25Q812.7-4.35 813.18-3.9 813.65-3.45 815.2-3.3 816.75-3.15 819.95-3.15L819.95-3.15Q823.3-3.15 825.28-2.6 827.25-2.05 828.13-0.85 829 0.35 829 2.4L829 2.4Q829 4.1 828.08 5.88 827.15 7.65 825.5 9.13 823.85 10.6 821.58 11.53 819.3 12.45 816.6 12.45ZM817.8-6.95L817.8-6.95Q815.45-6.95 813.35-7.85 811.25-8.75 809.98-10.55 808.7-12.35 808.7-15.05L808.7-15.05Q808.7-17.35 809.7-19.23 810.7-21.1 812.73-22.23 814.75-23.35 817.7-23.35L817.7-23.35Q820.2-23.35 821.93-22.53 823.65-21.7 824.75-20.43 825.85-19.15 826.35-17.78 826.85-16.4 826.85-15.35L826.85-15.35Q826.85-13.05 825.83-11.13 824.8-9.2 822.78-8.08 820.75-6.95 817.8-6.95ZM818.4-9.25L818.4-9.25Q820.05-9.25 821.1-10.63 822.15-12 822.15-14.6L822.15-14.6Q822.15-17.25 820.85-19.18 819.55-21.1 817.2-21.1L817.2-21.1Q815.2-21.1 814.25-19.43 813.3-17.75 813.3-15.7L813.3-15.7Q813.3-12.6 814.65-10.93 816-9.25 818.4-9.25ZM829.4-19.8L829.4-19.8Q828.6-20 827.48-20.2 826.35-20.4 825.28-20.55 824.2-20.7 823.45-20.75L823.45-20.75 819.95-22.9 829.05-22.9Q829.25-22.25 829.33-21.43 829.4-20.6 829.4-19.8ZM848.55 0.45L848.55 0.45Q848 0.2 847.67-0.45 847.35-1.1 847.35-2.5L847.35-2.5Q847.35-2.95 847.4-3.58 847.45-4.2 847.6-4.7L847.6-4.7 847.7-4.7Q847.55-3.9 847.02-2.98 846.5-2.05 845.65-1.35L845.65-1.35Q844.8-0.6 843.5-0.13 842.2 0.35 840.35 0.35L840.35 0.35Q837.2 0.35 835.55-1.07 833.9-2.5 833.9-4.95L833.9-4.95Q833.9-6.9 834.82-8.28 835.75-9.65 837.22-10.58 838.7-11.5 840.42-12.05 842.15-12.6 843.8-12.9 845.45-13.2 846.7-13.4L846.7-13.4Q846.7-15.45 846.62-16.6 846.55-17.75 846.32-18.43 846.1-19.1 845.65-19.6L845.65-19.6Q845.05-20.35 844.27-20.73 843.5-21.1 842.55-21.1L842.55-21.1Q840.9-21.1 839.95-20.08 839-19.05 838.6-17.7 838.2-16.35 838.15-15.3L838.15-15.3Q837.6-15.3 836.77-15.38 835.95-15.45 835.55-15.65L835.55-15.65Q835.65-16.9 835.6-18.45 835.55-20 835.3-21.1L835.3-21.1Q837.35-22.15 839.62-22.75 841.9-23.35 843.8-23.35L843.8-23.35Q845.65-23.35 846.97-22.83 848.3-22.3 849.1-21.45L849.1-21.45Q850.4-20.2 850.8-18.18 851.2-16.15 851.2-12.8L851.2-12.8 851.2-7.3Q851.2-5.9 851.42-5.08 851.65-4.25 852.3-3.88 852.95-3.5 854.3-3.4L854.3-3.4Q854.3-2.9 854.25-2.27 854.2-1.65 854-1.1L854-1.1Q852.75-1.05 851.22-0.63 849.7-0.2 848.55 0.45ZM841.75-2.4L841.75-2.4Q842.85-2.4 844-3.13 845.15-3.85 845.92-5.4 846.7-6.95 846.7-9.45L846.7-9.45 846.7-11.35Q845.45-11.2 844.05-10.93 842.65-10.65 841.45-10.1 840.25-9.55 839.5-8.58 838.75-7.6 838.75-5.95L838.75-5.95Q838.75-4.1 839.65-3.25 840.55-2.4 841.75-2.4ZM866.35-21.15L861.85-10.7 861.85-16.25Q861.85-17.45 861.6-18.2 861.35-18.95 860.55-19.35 859.75-19.75 858.1-19.8L858.1-19.8Q858.1-20.35 858.2-20.8 858.3-21.25 858.55-21.65L858.55-21.65Q860.1-21.75 862.1-22.25 864.1-22.75 865.25-23.35L865.25-23.35Q865.7-23.2 866.02-22.73 866.35-22.25 866.35-21.15L866.35-21.15ZM881.15-14.95L881.15-6.35Q881.15-3.75 881.87-2.88 882.6-2 884.1-2L884.1-2Q884.25-1.55 884.3-1.05 884.35-0.55 884.35 0.15L884.35 0.15Q883.25 0.05 881.85 0.03 880.45 0 878.9 0L878.9 0Q877.9 0 876.8 0.03 875.7 0.05 874.72 0.08 873.75 0.1 872.95 0.15L872.95 0.15Q872.95-0.55 873-1.07 873.05-1.6 873.2-2L873.2-2Q875-2 875.82-2.93 876.65-3.85 876.65-6.35L876.65-6.35 876.65-13.95Q876.65-17.5 875.35-18.78 874.05-20.05 872-20.05L872-20.05Q870.7-20.05 869.4-19.23 868.1-18.4 867.22-16.57 866.35-14.75 866.35-11.7L866.35-11.7 866.35-6.35Q866.35-3.85 867.1-2.93 867.85-2 869.8-2L869.8-2Q869.95-1.55 870-1.05 870.05-0.55 870.05 0.15L870.05 0.15Q869.35 0.1 868.35 0.08 867.35 0.05 866.25 0.03 865.15 0 864.1 0L864.1 0Q863.1 0 862 0.03 860.9 0.05 859.9 0.08 858.9 0.1 858.15 0.15L858.15 0.15Q858.15-0.55 858.2-1.07 858.25-1.6 858.4-2L858.4-2Q860.35-2 861.1-2.93 861.85-3.85 861.85-6.35L861.85-6.35 861.85-16.25 866.35-21.15Q866.35-20.55 866.3-19.8 866.25-19.05 866-18.2L866-18.2Q866.15-18.45 866.3-18.78 866.45-19.1 866.75-19.5L866.75-19.5Q867.6-20.65 869.47-21.88 871.35-23.1 874-23.1L874-23.1Q875.9-23.1 877.52-22.33 879.15-21.55 880.15-19.78 881.15-18 881.15-14.95L881.15-14.95ZM887.99 0.15L887.99 0.15Q887.99-0.35 888.04-0.93 888.09-1.5 888.24-2L888.24-2Q890.24-2 890.97-2.93 891.69-3.85 891.69-6.35L891.69-6.35 891.69-16.25Q891.69-17.45 891.47-18.23 891.24-19 890.44-19.4 889.64-19.8 887.94-19.8L887.94-19.8Q887.94-20.35 888.04-20.8 888.14-21.25 888.39-21.65L888.39-21.65Q889.14-21.65 890.52-21.9 891.89-22.15 893.19-22.55 894.49-22.95 895.09-23.35L895.09-23.35Q895.54-23.2 895.87-22.75 896.19-22.3 896.19-21.35L896.19-21.35 896.19-6.35Q896.19-3.85 896.87-2.93 897.54-2 899.14-2L899.14-2Q899.29-1.5 899.34-0.85 899.39-0.2 899.39 0.15L899.39 0.15Q898.54 0.1 897.59 0.08 896.64 0.05 895.67 0.03 894.69 0 893.74 0L893.74 0Q892.79 0 891.77 0.03 890.74 0.05 889.79 0.08 888.84 0.1 887.99 0.15ZM893.54-29L893.54-29Q892.29-29 891.44-29.85 890.59-30.7 890.59-31.9L890.59-31.9Q890.59-33.25 891.49-34.1 892.39-34.95 893.54-34.95L893.54-34.95Q894.89-34.95 895.72-34.1 896.54-33.25 896.54-31.9L896.54-31.9Q896.54-30.75 895.67-29.88 894.79-29 893.54-29ZM904.54 0.1L904.54 0.1Q904.19-0.25 903.97-0.78 903.74-1.3 903.74-1.9L903.74-1.9Q904.79-3.35 906.27-5.43 907.74-7.5 909.39-9.83 911.04-12.15 912.62-14.38 914.19-16.6 915.44-18.43 916.69-20.25 917.34-21.3L917.34-21.3 918.34-20.7 912.34-20.7Q910.54-20.7 909.49-20.3 908.44-19.9 907.87-18.75 907.29-17.6 906.79-15.4L906.79-15.4Q906.19-15.4 905.47-15.5 904.74-15.6 904.19-15.8L904.19-15.8Q904.34-17.45 904.44-19.3 904.54-21.15 904.54-23.05L904.54-23.05Q905.59-23 907.14-22.98 908.69-22.95 910.44-22.93 912.19-22.9 913.69-22.9L913.69-22.9Q915.19-22.9 916.87-22.93 918.54-22.95 920.07-22.98 921.59-23 922.54-23.05L922.54-23.05Q922.89-22.65 923.04-22.05 923.19-21.45 923.19-20.9L923.19-20.9Q921.89-19.05 920.04-16.45 918.19-13.85 916.19-11.08 914.19-8.3 912.37-5.8 910.54-3.3 909.24-1.65L909.24-1.65 908.84-2.25 916.04-2.25Q917.84-2.25 918.84-2.65 919.84-3.05 920.32-4.23 920.79-5.4 920.94-7.8L920.94-7.8Q921.54-7.8 922.19-7.75 922.84-7.7 923.59-7.5L923.59-7.5Q923.59-6.7 923.64-5.48 923.69-4.25 923.77-3 923.84-1.75 923.99-0.85L923.99-0.85Q923.54 0.1 922.39 0.1L922.39 0.1Q921.14 0.05 919.92 0.05 918.69 0.05 917.17 0.03 915.64 0 913.44 0L913.44 0Q910.14 0 908.02 0.03 905.89 0.05 904.54 0.1ZM943.39 0.45L943.39 0.45Q942.84 0.2 942.51-0.45 942.19-1.1 942.19-2.5L942.19-2.5Q942.19-2.95 942.24-3.58 942.29-4.2 942.44-4.7L942.44-4.7 942.54-4.7Q942.39-3.9 941.86-2.98 941.34-2.05 940.49-1.35L940.49-1.35Q939.64-0.6 938.34-0.13 937.04 0.35 935.19 0.35L935.19 0.35Q932.04 0.35 930.39-1.07 928.74-2.5 928.74-4.95L928.74-4.95Q928.74-6.9 929.66-8.28 930.59-9.65 932.06-10.58 933.54-11.5 935.26-12.05 936.99-12.6 938.64-12.9 940.29-13.2 941.54-13.4L941.54-13.4Q941.54-15.45 941.46-16.6 941.39-17.75 941.16-18.43 940.94-19.1 940.49-19.6L940.49-19.6Q939.89-20.35 939.11-20.73 938.34-21.1 937.39-21.1L937.39-21.1Q935.74-21.1 934.79-20.08 933.84-19.05 933.44-17.7 933.04-16.35 932.99-15.3L932.99-15.3Q932.44-15.3 931.61-15.38 930.79-15.45 930.39-15.65L930.39-15.65Q930.49-16.9 930.44-18.45 930.39-20 930.14-21.1L930.14-21.1Q932.19-22.15 934.46-22.75 936.74-23.35 938.64-23.35L938.64-23.35Q940.49-23.35 941.81-22.83 943.14-22.3 943.94-21.45L943.94-21.45Q945.24-20.2 945.64-18.18 946.04-16.15 946.04-12.8L946.04-12.8 946.04-7.3Q946.04-5.9 946.26-5.08 946.49-4.25 947.14-3.88 947.79-3.5 949.14-3.4L949.14-3.4Q949.14-2.9 949.09-2.27 949.04-1.65 948.84-1.1L948.84-1.1Q947.59-1.05 946.06-0.63 944.54-0.2 943.39 0.45ZM936.59-2.4L936.59-2.4Q937.69-2.4 938.84-3.13 939.99-3.85 940.76-5.4 941.54-6.95 941.54-9.45L941.54-9.45 941.54-11.35Q940.29-11.2 938.89-10.93 937.49-10.65 936.29-10.1 935.09-9.55 934.34-8.58 933.59-7.6 933.59-5.95L933.59-5.95Q933.59-4.1 934.49-3.25 935.39-2.4 936.59-2.4ZM961.54 0.45L961.54 0.45Q958.59 0.45 957.16-1.07 955.74-2.6 955.74-6L955.74-6 955.74-19.55Q954.99-19.8 954.19-19.98 953.39-20.15 952.14-20.2L952.14-20.2Q952.14-20.85 952.24-21.33 952.34-21.8 952.59-22.4L952.59-22.4 955.74-22.4 955.74-29Q956.74-29.25 957.71-29.8 958.69-30.35 959.44-31L959.44-31Q959.94-30.8 960.09-30.4 960.24-30 960.24-28.4L960.24-28.4 960.24-22.4 966.74-22.4Q966.74-21.9 966.64-21.33 966.54-20.75 966.29-20.2L966.29-20.2Q964.49-20.15 962.99-19.98 961.49-19.8 960.24-19.55L960.24-19.55 960.24-7.05Q960.24-5.4 960.59-4.33 960.94-3.25 961.59-2.75 962.24-2.25 963.14-2.25L963.14-2.25Q964.19-2.25 964.96-2.55 965.74-2.85 966.44-3.45L966.44-3.45Q967.09-2.7 967.19-1.8L967.19-1.8Q966.39-0.85 964.76-0.2 963.14 0.45 961.54 0.45ZM970.53 0.15L970.53 0.15Q970.53-0.35 970.58-0.93 970.63-1.5 970.78-2L970.78-2Q972.78-2 973.51-2.93 974.23-3.85 974.23-6.35L974.23-6.35 974.23-16.25Q974.23-17.45 974.01-18.23 973.78-19 972.98-19.4 972.18-19.8 970.48-19.8L970.48-19.8Q970.48-20.35 970.58-20.8 970.68-21.25 970.93-21.65L970.93-21.65Q971.68-21.65 973.06-21.9 974.43-22.15 975.73-22.55 977.03-22.95 977.63-23.35L977.63-23.35Q978.08-23.2 978.41-22.75 978.73-22.3 978.73-21.35L978.73-21.35 978.73-6.35Q978.73-3.85 979.41-2.93 980.08-2 981.68-2L981.68-2Q981.83-1.5 981.88-0.85 981.93-0.2 981.93 0.15L981.93 0.15Q981.08 0.1 980.13 0.08 979.18 0.05 978.21 0.03 977.23 0 976.28 0L976.28 0Q975.33 0 974.31 0.03 973.28 0.05 972.33 0.08 971.38 0.1 970.53 0.15ZM976.08-29L976.08-29Q974.83-29 973.98-29.85 973.13-30.7 973.13-31.9L973.13-31.9Q973.13-33.25 974.03-34.1 974.93-34.95 976.08-34.95L976.08-34.95Q977.43-34.95 978.26-34.1 979.08-33.25 979.08-31.9L979.08-31.9Q979.08-30.75 978.21-29.88 977.33-29 976.08-29ZM997.03 0.45L997.03 0.45Q993.63 0.45 991.08-1.03 988.53-2.5 987.13-5.18 985.73-7.85 985.73-11.45L985.73-11.45Q985.73-14.85 987.18-17.55 988.63-20.25 991.18-21.8 993.73-23.35 997.03-23.35L997.03-23.35Q1000.58-23.35 1003.11-21.85 1005.63-20.35 1006.98-17.68 1008.33-15 1008.33-11.45L1008.33-11.45Q1008.33-8.05 1006.91-5.35 1005.48-2.65 1002.96-1.1 1000.43 0.45 997.03 0.45ZM997.43-1.95L997.43-1.95Q1000.43-1.95 1001.88-4.42 1003.33-6.9 1003.33-10.85L1003.33-10.85Q1003.33-13.95 1002.41-16.23 1001.48-18.5 999.93-19.73 998.38-20.95 996.53-20.95L996.53-20.95Q993.63-20.95 992.21-18.6 990.78-16.25 990.78-12.5L990.78-12.5Q990.78-9.15 991.61-6.78 992.43-4.4 993.93-3.18 995.43-1.95 997.43-1.95ZM1020.38-21.15L1015.88-10.7 1015.88-16.25Q1015.88-17.45 1015.63-18.2 1015.38-18.95 1014.58-19.35 1013.78-19.75 1012.13-19.8L1012.13-19.8Q1012.13-20.35 1012.23-20.8 1012.33-21.25 1012.58-21.65L1012.58-21.65Q1014.13-21.75 1016.13-22.25 1018.13-22.75 1019.28-23.35L1019.28-23.35Q1019.73-23.2 1020.05-22.73 1020.38-22.25 1020.38-21.15L1020.38-21.15ZM1035.18-14.95L1035.18-6.35Q1035.18-3.75 1035.9-2.88 1036.63-2 1038.13-2L1038.13-2Q1038.28-1.55 1038.33-1.05 1038.38-0.55 1038.38 0.15L1038.38 0.15Q1037.28 0.05 1035.88 0.03 1034.48 0 1032.93 0L1032.93 0Q1031.93 0 1030.83 0.03 1029.73 0.05 1028.75 0.08 1027.78 0.1 1026.98 0.15L1026.98 0.15Q1026.98-0.55 1027.03-1.07 1027.08-1.6 1027.23-2L1027.23-2Q1029.03-2 1029.85-2.93 1030.68-3.85 1030.68-6.35L1030.68-6.35 1030.68-13.95Q1030.68-17.5 1029.38-18.78 1028.08-20.05 1026.03-20.05L1026.03-20.05Q1024.73-20.05 1023.43-19.23 1022.13-18.4 1021.25-16.57 1020.38-14.75 1020.38-11.7L1020.38-11.7 1020.38-6.35Q1020.38-3.85 1021.13-2.93 1021.88-2 1023.83-2L1023.83-2Q1023.98-1.55 1024.03-1.05 1024.08-0.55 1024.08 0.15L1024.08 0.15Q1023.38 0.1 1022.38 0.08 1021.38 0.05 1020.28 0.03 1019.18 0 1018.13 0L1018.13 0Q1017.13 0 1016.03 0.03 1014.93 0.05 1013.93 0.08 1012.93 0.1 1012.18 0.15L1012.18 0.15Q1012.18-0.55 1012.23-1.07 1012.28-1.6 1012.43-2L1012.43-2Q1014.38-2 1015.13-2.93 1015.88-3.85 1015.88-6.35L1015.88-6.35 1015.88-16.25 1020.38-21.15Q1020.38-20.55 1020.33-19.8 1020.28-19.05 1020.03-18.2L1020.03-18.2Q1020.18-18.45 1020.33-18.78 1020.48-19.1 1020.78-19.5L1020.78-19.5Q1021.63-20.65 1023.5-21.88 1025.38-23.1 1028.03-23.1L1028.03-23.1Q1029.93-23.1 1031.55-22.33 1033.18-21.55 1034.18-19.78 1035.18-18 1035.18-14.95L1035.18-14.95ZM1057.93-21.6L1057.93-21.6Q1057.88-20.4 1057.85-19.05 1057.83-17.7 1058.03-16.4L1058.03-16.4Q1057.53-16.1 1056.88-15.95 1056.23-15.8 1055.53-15.8L1055.53-15.8Q1055.43-17.2 1054.7-18.45 1053.98-19.7 1052.78-20.5 1051.58-21.3 1049.93-21.3L1049.93-21.3Q1048.38-21.3 1047.45-20.55 1046.53-19.8 1046.53-18.55L1046.53-18.55Q1046.53-17.7 1046.9-17.05 1047.28-16.4 1048.55-15.68 1049.83-14.95 1052.48-13.9L1052.48-13.9Q1055.18-12.9 1056.73-11.9 1058.28-10.9 1058.93-9.65 1059.58-8.4 1059.58-6.6L1059.58-6.6Q1059.58-4.5 1058.38-2.9 1057.18-1.3 1055.1-0.43 1053.03 0.45 1050.43 0.45L1050.43 0.45Q1047.43 0.45 1045.65-0.03 1043.88-0.5 1042.18-1.4L1042.18-1.4Q1042.28-2.2 1042.3-3.35 1042.33-4.5 1042.33-5.65 1042.33-6.8 1042.23-7.6L1042.23-7.6Q1042.63-7.9 1043.35-8.03 1044.08-8.15 1044.83-8.15L1044.83-8.15Q1045.23-5 1046.78-3.45 1048.33-1.9 1050.93-1.9L1050.93-1.9Q1052.98-1.9 1054.1-2.8 1055.23-3.7 1055.23-5.1L1055.23-5.1Q1055.23-6 1054.8-6.65 1054.38-7.3 1053.23-7.95 1052.08-8.6 1049.83-9.5L1049.83-9.5Q1047.13-10.6 1045.5-11.55 1043.88-12.5 1043.15-13.8 1042.43-15.1 1042.43-17.1L1042.43-17.1Q1042.43-18.7 1043.23-19.88 1044.03-21.05 1045.3-21.83 1046.58-22.6 1048.03-22.98 1049.48-23.35 1050.73-23.35L1050.73-23.35Q1052.98-23.35 1054.68-22.9 1056.38-22.45 1057.93-21.6Z" opacity="1" transform="matrix(1,0,0,1,0,0)" fill="#7a26c1" class="slogan-text-1" data-fill-palette-color="secondary" id="text-1"></path></svg></g></svg></g></svg></g></svg></g><g><svg viewBox="0 0 221.17932557404532 221.17932557404532" height="221.17932557404532" width="221.17932557404532"><g><svg></svg></g><g id="icon-0"><svg viewBox="0 0 221.17932557404532 221.17932557404532" height="221.17932557404532" width="221.17932557404532"><g><path d="M0 110.59c0-61.077 49.513-110.59 110.59-110.59 61.077 0 110.59 49.513 110.589 110.59 0 61.077-49.513 110.59-110.589 110.589-61.077 0-110.59-49.513-110.59-110.589zM110.59 211.632c55.804 0 101.042-45.238 101.042-101.042 0-55.804-45.238-101.042-101.042-101.043-55.804 0-101.042 45.238-101.043 101.043 0 55.804 45.238 101.042 101.043 101.042z" data-fill-palette-color="accent" fill="#7a26c1" stroke="transparent"></path></g><g transform="matrix(1,0,0,1,52.237815123650456,50.756079645985814)"><svg viewBox="0 0 116.70369532674441 119.6671662820737" height="119.6671662820737" width="116.70369532674441"><g><svg xmlns="http://www.w3.org/2000/svg" xmlns:xlink="http://www.w3.org/1999/xlink" version="1.1" x="0" y="0" viewBox="10 10.056000000000001 235.615 241.59799999999998" enable-background="new 0 0 260 260" xml:space="preserve" height="119.6671662820737" width="116.70369532674441" class="icon-cg-0" data-fill-palette-color="accent" id="cg-0"><g fill="#7a26c1" data-fill-palette-color="accent"><g fill="#7a26c1" data-fill-palette-color="accent"><path d="M233.115 165.829H22.5c-6.904 0-12.5-5.597-12.5-12.5v-47.873c0-6.904 5.596-12.5 12.5-12.5h210.615c6.903 0 12.5 5.596 12.5 12.5v47.873C245.615 160.232 240.019 165.829 233.115 165.829zM35 140.829h185.615v-22.873H35V140.829z" fill="#7a26c1" data-fill-palette-color="accent"></path></g></g><g fill="#7a26c1" data-fill-palette-color="accent"><g fill="#7a26c1" data-fill-palette-color="accent"><path d="M233.115 81.928H22.5c-6.904 0-12.5-5.596-12.5-12.5V22.556c0-6.904 5.596-12.5 12.5-12.5h210.615c6.903 0 12.5 5.596 12.5 12.5v46.872C245.615 76.332 240.019 81.928 233.115 81.928zM35 56.928h185.615V35.056H35V56.928z" fill="#7a26c1" data-fill-palette-color="accent"></path></g></g><g fill="#7a26c1" data-fill-palette-color="accent"><g fill="#7a26c1" data-fill-palette-color="accent"><path d="M233.115 251.654H22.5c-6.904 0-12.5-5.597-12.5-12.5v-48.87c0-6.903 5.596-12.5 12.5-12.5h210.615c6.903 0 12.5 5.597 12.5 12.5v48.87C245.615 246.058 240.019 251.654 233.115 251.654zM35 226.654h185.615v-23.87H35V226.654z" fill="#7a26c1" data-fill-palette-color="accent"></path></g></g></svg></g></svg></g></svg></g></svg></g></svg></g><defs></defs></svg><rect width="395.52" height="131.21750575510265" fill="none" stroke="none" visibility="hidden"></rect></g></svg></g></svg>